<?xml version="1.0" encoding="utf-8"?>
<!-- Generator: Adobe Illustrator 27.3.1, SVG Export Plug-In . SVG Version: 6.00 Build 0)  -->
<svg version="1.1" id="Layer_1" xmlns="http://www.w3.org/2000/svg" xmlns:xlink="http://www.w3.org/1999/xlink" x="0px" y="0px"
	 viewBox="0 0 360 360" style="enable-background:new 0 0 360 360;" xml:space="preserve">
<style type="text/css">
	.st0{fill:url(#SVGID_1_);}
	.st1{fill:#4285F4;}
	.st2{fill:url(#SVGID_00000172441048416668952970000005452836173890774931_);}
	.st3{fill:#0F9D58;}
</style>
<linearGradient id="SVGID_1_" gradientUnits="userSpaceOnUse" x1="35.3675" y1="173.8241" x2="164.2475" y2="265.1062" gradientTransform="matrix(1 0 0 -1 0 362)">
	<stop  offset="0" style="stop-color:#231F20"/>
	<stop  offset="0.11" style="stop-color:#502725"/>
	<stop  offset="0.2859" style="stop-color:#91332C"/>
	<stop  offset="0.4341" style="stop-color:#C13C31"/>
	<stop  offset="0.5467" style="stop-color:#DF4134"/>
	<stop  offset="0.6107" style="stop-color:#EA4335"/>
</linearGradient>
<path class="st0" d="M147.15,147.66l-94.54,54.58c-12.73,7.35-29.01,2.99-36.35-9.74l0,0C8.9,179.78,13.27,163.5,26,156.15
	l94.54-54.58c12.73-7.35,29.01-2.99,36.35,9.74l0,0C164.24,124.04,159.88,140.31,147.15,147.66z"/>
<path class="st1" d="M119.56,257.84l-94.54-54.58c-12.73-7.35-17.09-23.62-9.74-36.35l0,0c7.35-12.73,23.62-17.09,36.35-9.74
	l94.54,54.58c12.73,7.35,17.09,23.62,9.74,36.35l0,0C148.57,260.83,132.29,265.19,119.56,257.84z"/>
<linearGradient id="SVGID_00000052101906365329708560000015775649855423459226_" gradientUnits="userSpaceOnUse" x1="199.8956" y1="154.4959" x2="347.6713" y2="154.4959" gradientTransform="matrix(1 0 0 -1 0 362)">
	<stop  offset="0" style="stop-color:#F6B904"/>
	<stop  offset="0.1178" style="stop-color:#F2B604"/>
	<stop  offset="0.2446" style="stop-color:#E5AC04"/>
	<stop  offset="0.3756" style="stop-color:#CF9C03"/>
	<stop  offset="0.5095" style="stop-color:#B18503"/>
	<stop  offset="0.6457" style="stop-color:#8A6802"/>
	<stop  offset="0.7837" style="stop-color:#5B4401"/>
	<stop  offset="0.9206" style="stop-color:#241B01"/>
	<stop  offset="1" style="stop-color:#000000"/>
</linearGradient>
<path style="fill:url(#SVGID_00000052101906365329708560000015775649855423459226_);" d="M334.36,203.26l-94.54,54.58
	c-12.73,7.35-29.01,2.99-36.35-9.74l0,0c-7.35-12.73-2.99-29.01,9.74-36.35l94.54-54.58c12.73-7.35,29.01-2.99,36.35,9.74l0,0
	C351.45,179.63,347.09,195.91,334.36,203.26z"/>
<path class="st3" d="M307.75,202.25l-94.54-54.58c-12.73-7.35-17.09-23.62-9.74-36.35l0,0c7.35-12.73,23.62-17.09,36.35-9.74
	l94.54,54.58c12.73,7.35,17.09,23.62,9.74,36.35l0,0C336.75,205.23,320.48,209.6,307.75,202.25z"/>
</svg>
